<svg width="100.000000" height="100.000000" viewBox="0 0 100 100" fill="none" xmlns="http://www.w3.org/2000/svg" xmlns:xlink="http://www.w3.org/1999/xlink">
	<defs>
		<clipPath id="clip2_1">
			<rect id="尺寸1" width="100.000000" height="100.000000" fill="white" fill-opacity="0"/>
		</clipPath>
	</defs>
	<rect id="尺寸1" width="100.000000" height="100.000000" fill="#FFFFFF" fill-opacity="0"/>
	<g clip-path="url(#clip2_1)">
		<path id="矩形 1" d="M21 27.5L39 27.5C40.1 27.5 41 28.39 41 29.5L41 31.5C41 32.6 40.1 33.5 39 33.5L21 33.5C19.34 33.5 18 32.15 18 30.5C18 28.84 19.34 27.5 21 27.5Z" fill="#8288DE" fill-opacity="1.000000" fill-rule="evenodd"/>
		<rect id="矩形 1" x="13.000000" y="41.500000" rx="3.000000" width="34.000000" height="6.000000" fill="#8288DE" fill-opacity="1.000000"/>
		<rect id="矩形 1" x="18.000000" y="55.500000" rx="3.000000" width="32.000000" height="6.000000" fill="#8288DE" fill-opacity="1.000000"/>
		<path id="矩形 2" d="M46 27.5L54 27.5C55.65 27.5 57 28.84 57 30.5C57 32.15 55.65 33.5 54 33.5L46 33.5C45.44 33.5 45 33.05 45 32.5L45 28.5C45 27.94 45.44 27.5 46 27.5Z" fill="#8288DE" fill-opacity="1.000000" fill-rule="evenodd"/>
		<path id="矢量 1" d="M62 32L62 30.5L62 28.59C62 28.22 62.19 27.89 62.51 27.71L85.78 14.94C86.49 14.54 87.35 15.13 87.25 15.94L84.58 37.31C84.53 37.76 84.32 38.17 84.01 38.48L83.5 39L82.83 39.49C82.23 39.95 81.36 39.59 81.24 38.85L80.5 34L79.88 31.52C79.7 30.81 78.84 30.52 78.28 30.99L65.68 41.22C64.95 41.81 65.37 43 66.31 43L85.6 43C86.55 43 86.96 44.2 86.22 44.78L34.39 85.4C33.59 86.03 32.46 85.96 31.74 85.24L31.7 85.2C31.31 84.81 31.31 84.18 31.7 83.79L33.5 82L72.4 49.26C73.11 48.66 72.69 47.5 71.75 47.5L52.81 47.5C51.87 47.5 51.45 46.31 52.18 45.72L66 34.5L65.5 33L63 33C62.44 33 62 32.55 62 32Z" fill="#8288DE" fill-opacity="1.000000" fill-rule="evenodd"/>
	</g>
</svg>
