<?xml version="1.0" encoding="UTF-8"?>
<svg version="1.1" xmlns="http://www.w3.org/2000/svg" width="512" height="512">
<path d="M0 0 C31.68 0 63.36 0 96 0 C96 5.28 96 10.56 96 16 C106.56 16 117.12 16 128 16 C128 21.28 128 26.56 128 32 C133.28 32 138.56 32 144 32 C144 37.28 144 42.56 144 48 C149.28 48 154.56 48 160 48 C160 137.76 160 227.52 160 320 C154.72 320 149.44 320 144 320 C144 325.28 144 330.56 144 336 C138.72 336 133.44 336 128 336 C128 341.28 128 346.56 128 352 C117.44 352 106.88 352 96 352 C96 357.28 96 362.56 96 368 C64.32 368 32.64 368 0 368 C0 362.72 0 357.44 0 352 C-5.28 352 -10.56 352 -16 352 C-16 362.56 -16 373.12 -16 384 C-21.28 384 -26.56 384 -32 384 C-32 389.28 -32 394.56 -32 400 C-37.28 400 -42.56 400 -48 400 C-48 405.28 -48 410.56 -48 416 C-58.56 416 -69.12 416 -80 416 C-80 421.28 -80 426.56 -80 432 C-111.68 432 -143.36 432 -176 432 C-176 426.72 -176 421.44 -176 416 C-186.56 416 -197.12 416 -208 416 C-208 410.72 -208 405.44 -208 400 C-213.28 400 -218.56 400 -224 400 C-224 394.72 -224 389.44 -224 384 C-229.28 384 -234.56 384 -240 384 C-240 325.92 -240 267.84 -240 208 C-234.72 208 -229.44 208 -224 208 C-224 202.72 -224 197.44 -224 192 C-218.72 192 -213.44 192 -208 192 C-208 186.72 -208 181.44 -208 176 C-197.44 176 -186.88 176 -176 176 C-176 170.72 -176 165.44 -176 160 C-144.32 160 -112.64 160 -80 160 C-80 165.28 -80 170.56 -80 176 C-74.72 176 -69.44 176 -64 176 C-64 133.76 -64 91.52 -64 48 C-58.72 48 -53.44 48 -48 48 C-48 42.72 -48 37.44 -48 32 C-42.72 32 -37.44 32 -32 32 C-32 26.72 -32 21.44 -32 16 C-21.44 16 -10.88 16 0 16 C0 10.72 0 5.44 0 0 Z " fill="#D5A57D" transform="translate(288,48)"/>
<path d="M0 0 C31.68 0 63.36 0 96 0 C96 5.28 96 10.56 96 16 C101.28 16 106.56 16 112 16 C112 21.28 112 26.56 112 32 C117.28 32 122.56 32 128 32 C128 121.76 128 211.52 128 304 C122.72 304 117.44 304 112 304 C112 309.28 112 314.56 112 320 C106.72 320 101.44 320 96 320 C96 325.28 96 330.56 96 336 C85.44 336 74.88 336 64 336 C64 341.28 64 346.56 64 352 C32.32 352 0.64 352 -32 352 C-32 336.16 -32 320.32 -32 304 C-0.32 304 31.36 304 64 304 C64 298.72 64 293.44 64 288 C32.32 288 0.64 288 -32 288 C-32 277.44 -32 266.88 -32 256 C-0.32 256 31.36 256 64 256 C64 250.72 64 245.44 64 240 C32.32 240 0.64 240 -32 240 C-32 229.44 -32 218.88 -32 208 C-0.32 208 31.36 208 64 208 C64 202.72 64 197.44 64 192 C32.32 192 0.64 192 -32 192 C-32 186.72 -32 181.44 -32 176 C-42.56 176 -53.12 176 -64 176 C-64 170.72 -64 165.44 -64 160 C-69.28 160 -74.56 160 -80 160 C-80 149.44 -80 138.88 -80 128 C-74.72 128 -69.44 128 -64 128 C-64 122.72 -64 117.44 -64 112 C-69.28 112 -74.56 112 -80 112 C-80 101.44 -80 90.88 -80 80 C-74.72 80 -69.44 80 -64 80 C-64 74.72 -64 69.44 -64 64 C-58.72 64 -53.44 64 -48 64 C-48 58.72 -48 53.44 -48 48 C-42.72 48 -37.44 48 -32 48 C-32 42.72 -32 37.44 -32 32 C-26.72 32 -21.44 32 -16 32 C-16 26.72 -16 21.44 -16 16 C-10.72 16 -5.44 16 0 16 C0 10.72 0 5.44 0 0 Z " fill="#D5A57D" transform="translate(320,64)"/>
<path d="M0 0 C31.68 0 63.36 0 96 0 C96 10.56 96 21.12 96 32 C106.56 32 117.12 32 128 32 C128 42.56 128 53.12 128 64 C122.72 64 117.44 64 112 64 C112 69.28 112 74.56 112 80 C106.72 80 101.44 80 96 80 C96 90.56 96 101.12 96 112 C64.32 112 32.64 112 0 112 C0 122.56 0 133.12 0 144 C-10.56 144 -21.12 144 -32 144 C-32 149.28 -32 154.56 -32 160 C-21.44 160 -10.88 160 0 160 C0 165.28 0 170.56 0 176 C31.68 176 63.36 176 96 176 C96 170.72 96 165.44 96 160 C101.28 160 106.56 160 112 160 C112 170.56 112 181.12 112 192 C106.72 192 101.44 192 96 192 C96 197.28 96 202.56 96 208 C64.32 208 32.64 208 0 208 C0 218.56 0 229.12 0 240 C-15.84 240 -31.68 240 -48 240 C-48 234.72 -48 229.44 -48 224 C-53.28 224 -58.56 224 -64 224 C-64 165.92 -64 107.84 -64 48 C-58.72 48 -53.44 48 -48 48 C-48 42.72 -48 37.44 -48 32 C-42.72 32 -37.44 32 -32 32 C-32 26.72 -32 21.44 -32 16 C-21.44 16 -10.88 16 0 16 C0 10.72 0 5.44 0 0 Z " fill="#E5CB8E" transform="translate(112,208)"/>
<path d="M0 0 C31.68 0 63.36 0 96 0 C96 15.84 96 31.68 96 48 C90.72 48 85.44 48 80 48 C80 53.28 80 58.56 80 64 C74.72 64 69.44 64 64 64 C64 69.28 64 74.56 64 80 C58.72 80 53.44 80 48 80 C48 85.28 48 90.56 48 96 C21.6 96 -4.8 96 -32 96 C-32 106.56 -32 117.12 -32 128 C-42.56 128 -53.12 128 -64 128 C-64 122.72 -64 117.44 -64 112 C-69.28 112 -74.56 112 -80 112 C-80 101.44 -80 90.88 -80 80 C-74.72 80 -69.44 80 -64 80 C-64 74.72 -64 69.44 -64 64 C-58.72 64 -53.44 64 -48 64 C-48 58.72 -48 53.44 -48 48 C-42.72 48 -37.44 48 -32 48 C-32 42.72 -32 37.44 -32 32 C-26.72 32 -21.44 32 -16 32 C-16 26.72 -16 21.44 -16 16 C-10.72 16 -5.44 16 0 16 C0 10.72 0 5.44 0 0 Z " fill="#E5CB8E" transform="translate(320,64)"/>
<path d="M0 0 C21.12 0 42.24 0 64 0 C64 5.28 64 10.56 64 16 C74.56 16 85.12 16 96 16 C96 26.56 96 37.12 96 48 C90.72 48 85.44 48 80 48 C80 53.28 80 58.56 80 64 C74.72 64 69.44 64 64 64 C64 74.56 64 85.12 64 96 C32.32 96 0.64 96 -32 96 C-32 106.56 -32 117.12 -32 128 C-42.56 128 -53.12 128 -64 128 C-64 122.72 -64 117.44 -64 112 C-69.28 112 -74.56 112 -80 112 C-80 101.44 -80 90.88 -80 80 C-74.72 80 -69.44 80 -64 80 C-64 74.72 -64 69.44 -64 64 C-58.72 64 -53.44 64 -48 64 C-48 58.72 -48 53.44 -48 48 C-42.72 48 -37.44 48 -32 48 C-32 42.72 -32 37.44 -32 32 C-26.72 32 -21.44 32 -16 32 C-16 26.72 -16 21.44 -16 16 C-10.72 16 -5.44 16 0 16 C0 10.72 0 5.44 0 0 Z " fill="#E5CB8E" transform="translate(144,224)"/>
<path d="M0 0 C10.56 0 21.12 0 32 0 C32 5.28 32 10.56 32 16 C63.68 16 95.36 16 128 16 C128 21.28 128 26.56 128 32 C96.32 32 64.64 32 32 32 C32 42.56 32 53.12 32 64 C63.68 64 95.36 64 128 64 C128 69.28 128 74.56 128 80 C96.32 80 64.64 80 32 80 C32 90.56 32 101.12 32 112 C63.68 112 95.36 112 128 112 C128 117.28 128 122.56 128 128 C96.32 128 64.64 128 32 128 C32 138.56 32 149.12 32 160 C26.72 160 21.44 160 16 160 C16 170.56 16 181.12 16 192 C10.72 192 5.44 192 0 192 C0 181.44 0 170.88 0 160 C-5.28 160 -10.56 160 -16 160 C-16 154.72 -16 149.44 -16 144 C-10.72 144 -5.44 144 0 144 C0 133.44 0 122.88 0 112 C-5.28 112 -10.56 112 -16 112 C-16 106.72 -16 101.44 -16 96 C-10.72 96 -5.44 96 0 96 C0 85.44 0 74.88 0 64 C-5.28 64 -10.56 64 -16 64 C-16 58.72 -16 53.44 -16 48 C-10.72 48 -5.44 48 0 48 C0 32.16 0 16.32 0 0 Z " fill="#9B5044" transform="translate(256,240)"/>
<path d="M0 0 C31.68 0 63.36 0 96 0 C96 5.28 96 10.56 96 16 C74.88 16 53.76 16 32 16 C32 21.28 32 26.56 32 32 C26.72 32 21.44 32 16 32 C16 37.28 16 42.56 16 48 C10.72 48 5.44 48 0 48 C0 53.28 0 58.56 0 64 C-5.28 64 -10.56 64 -16 64 C-16 69.28 -16 74.56 -16 80 C-21.28 80 -26.56 80 -32 80 C-32 85.28 -32 90.56 -32 96 C-37.28 96 -42.56 96 -48 96 C-48 106.56 -48 117.12 -48 128 C-42.72 128 -37.44 128 -32 128 C-32 133.28 -32 138.56 -32 144 C-37.28 144 -42.56 144 -48 144 C-48 154.56 -48 165.12 -48 176 C-42.72 176 -37.44 176 -32 176 C-32 197.12 -32 218.24 -32 240 C-37.28 240 -42.56 240 -48 240 C-48 245.28 -48 250.56 -48 256 C-58.56 256 -69.12 256 -80 256 C-80 250.72 -80 245.44 -80 240 C-74.72 240 -69.44 240 -64 240 C-64 234.72 -64 229.44 -64 224 C-58.72 224 -53.44 224 -48 224 C-48 213.44 -48 202.88 -48 192 C-58.56 192 -69.12 192 -80 192 C-80 186.72 -80 181.44 -80 176 C-74.72 176 -69.44 176 -64 176 C-64 133.76 -64 91.52 -64 48 C-58.72 48 -53.44 48 -48 48 C-48 42.72 -48 37.44 -48 32 C-42.72 32 -37.44 32 -32 32 C-32 26.72 -32 21.44 -32 16 C-21.44 16 -10.88 16 0 16 C0 10.72 0 5.44 0 0 Z " fill="#D5A57D" transform="translate(288,48)"/>
<path d="M0 0 C5.28 0 10.56 0 16 0 C16 5.28 16 10.56 16 16 C26.56 16 37.12 16 48 16 C48 21.28 48 26.56 48 32 C79.68 32 111.36 32 144 32 C144 26.72 144 21.44 144 16 C149.28 16 154.56 16 160 16 C160 26.56 160 37.12 160 48 C154.72 48 149.44 48 144 48 C144 53.28 144 58.56 144 64 C112.32 64 80.64 64 48 64 C48 74.56 48 85.12 48 96 C32.16 96 16.32 96 0 96 C0 80.16 0 64.32 0 48 C5.28 48 10.56 48 16 48 C16 42.72 16 37.44 16 32 C10.72 32 5.44 32 0 32 C0 21.44 0 10.88 0 0 Z " fill="#E5CB8E" transform="translate(64,352)"/>
<path d="M0 0 C5.28 0 10.56 0 16 0 C16 89.76 16 179.52 16 272 C10.72 272 5.44 272 0 272 C0 261.44 0 250.88 0 240 C-5.28 240 -10.56 240 -16 240 C-16 234.72 -16 229.44 -16 224 C-10.72 224 -5.44 224 0 224 C0 213.44 0 202.88 0 192 C-5.28 192 -10.56 192 -16 192 C-16 186.72 -16 181.44 -16 176 C-10.72 176 -5.44 176 0 176 C0 165.44 0 154.88 0 144 C-5.28 144 -10.56 144 -16 144 C-16 138.72 -16 133.44 -16 128 C-10.72 128 -5.44 128 0 128 C0 117.44 0 106.88 0 96 C-5.28 96 -10.56 96 -16 96 C-16 90.72 -16 85.44 -16 80 C-10.72 80 -5.44 80 0 80 C0 69.44 0 58.88 0 48 C-5.28 48 -10.56 48 -16 48 C-16 42.72 -16 37.44 -16 32 C-10.72 32 -5.44 32 0 32 C0 21.44 0 10.88 0 0 Z " fill="#B9745E" transform="translate(432,96)"/>
<path d="M0 0 C5.28 0 10.56 0 16 0 C16 10.56 16 21.12 16 32 C10.72 32 5.44 32 0 32 C0 42.56 0 53.12 0 64 C-31.68 64 -63.36 64 -96 64 C-96 48.16 -96 32.32 -96 16 C-64.32 16 -32.64 16 0 16 C0 10.72 0 5.44 0 0 Z " fill="#FAF9C6" transform="translate(384,352)"/>
<path d="M0 0 C5.28 0 10.56 0 16 0 C16 5.28 16 10.56 16 16 C26.56 16 37.12 16 48 16 C48 21.28 48 26.56 48 32 C79.68 32 111.36 32 144 32 C144 26.72 144 21.44 144 16 C149.28 16 154.56 16 160 16 C160 26.56 160 37.12 160 48 C154.72 48 149.44 48 144 48 C144 53.28 144 58.56 144 64 C112.32 64 80.64 64 48 64 C48 58.72 48 53.44 48 48 C37.44 48 26.88 48 16 48 C16 42.72 16 37.44 16 32 C10.72 32 5.44 32 0 32 C0 21.44 0 10.88 0 0 Z " fill="#FAF9C6" transform="translate(240,192)"/>
<path d="M0 0 C5.28 0 10.56 0 16 0 C16 10.56 16 21.12 16 32 C-5.12 32 -26.24 32 -48 32 C-48 42.56 -48 53.12 -48 64 C-26.88 64 -5.76 64 16 64 C16 69.28 16 74.56 16 80 C-15.68 80 -47.36 80 -80 80 C-80 74.72 -80 69.44 -80 64 C-90.56 64 -101.12 64 -112 64 C-112 58.72 -112 53.44 -112 48 C-101.44 48 -90.88 48 -80 48 C-80 37.44 -80 26.88 -80 16 C-53.6 16 -27.2 16 0 16 C0 10.72 0 5.44 0 0 Z " fill="#D5A57D" transform="translate(368,144)"/>
<path d="M0 0 C31.68 0 63.36 0 96 0 C96 5.28 96 10.56 96 16 C74.88 16 53.76 16 32 16 C32 21.28 32 26.56 32 32 C26.72 32 21.44 32 16 32 C16 37.28 16 42.56 16 48 C10.72 48 5.44 48 0 48 C0 53.28 0 58.56 0 64 C-5.28 64 -10.56 64 -16 64 C-16 69.28 -16 74.56 -16 80 C-26.56 80 -37.12 80 -48 80 C-48 64.16 -48 48.32 -48 32 C-42.72 32 -37.44 32 -32 32 C-32 26.72 -32 21.44 -32 16 C-21.44 16 -10.88 16 0 16 C0 10.72 0 5.44 0 0 Z " fill="#E5CB8E" transform="translate(288,48)"/>
<path d="M0 0 C31.68 0 63.36 0 96 0 C96 5.28 96 10.56 96 16 C74.88 16 53.76 16 32 16 C32 26.56 32 37.12 32 48 C53.12 48 74.24 48 96 48 C96 53.28 96 58.56 96 64 C64.32 64 32.64 64 0 64 C0 58.72 0 53.44 0 48 C-10.56 48 -21.12 48 -32 48 C-32 42.72 -32 37.44 -32 32 C-21.44 32 -10.88 32 0 32 C0 21.44 0 10.88 0 0 Z " fill="#E5CB8E" transform="translate(112,416)"/>
<path d="M0 0 C31.68 0 63.36 0 96 0 C96 5.28 96 10.56 96 16 C74.88 16 53.76 16 32 16 C32 26.56 32 37.12 32 48 C53.12 48 74.24 48 96 48 C96 53.28 96 58.56 96 64 C64.32 64 32.64 64 0 64 C0 58.72 0 53.44 0 48 C-10.56 48 -21.12 48 -32 48 C-32 42.72 -32 37.44 -32 32 C-21.44 32 -10.88 32 0 32 C0 21.44 0 10.88 0 0 Z " fill="#E5CB8E" transform="translate(112,320)"/>
<path d="M0 0 C15.84 0 31.68 0 48 0 C48 5.28 48 10.56 48 16 C42.72 16 37.44 16 32 16 C32 21.28 32 26.56 32 32 C26.72 32 21.44 32 16 32 C16 37.28 16 42.56 16 48 C10.72 48 5.44 48 0 48 C0 53.28 0 58.56 0 64 C-5.28 64 -10.56 64 -16 64 C-16 69.28 -16 74.56 -16 80 C-31.84 80 -47.68 80 -64 80 C-64 74.72 -64 69.44 -64 64 C-58.72 64 -53.44 64 -48 64 C-48 58.72 -48 53.44 -48 48 C-42.72 48 -37.44 48 -32 48 C-32 42.72 -32 37.44 -32 32 C-26.72 32 -21.44 32 -16 32 C-16 26.72 -16 21.44 -16 16 C-10.72 16 -5.44 16 0 16 C0 10.72 0 5.44 0 0 Z " fill="#FAF9C6" transform="translate(144,224)"/>
<path d="M0 0 C15.84 0 31.68 0 48 0 C48 5.28 48 10.56 48 16 C42.72 16 37.44 16 32 16 C32 21.28 32 26.56 32 32 C26.72 32 21.44 32 16 32 C16 37.28 16 42.56 16 48 C10.72 48 5.44 48 0 48 C0 53.28 0 58.56 0 64 C-5.28 64 -10.56 64 -16 64 C-16 69.28 -16 74.56 -16 80 C-31.84 80 -47.68 80 -64 80 C-64 74.72 -64 69.44 -64 64 C-58.72 64 -53.44 64 -48 64 C-48 58.72 -48 53.44 -48 48 C-42.72 48 -37.44 48 -32 48 C-32 42.72 -32 37.44 -32 32 C-26.72 32 -21.44 32 -16 32 C-16 26.72 -16 21.44 -16 16 C-10.72 16 -5.44 16 0 16 C0 10.72 0 5.44 0 0 Z " fill="#FAF9C6" transform="translate(320,64)"/>
<path d="M0 0 C5.28 0 10.56 0 16 0 C16 10.56 16 21.12 16 32 C10.72 32 5.44 32 0 32 C0 37.28 0 42.56 0 48 C-31.68 48 -63.36 48 -96 48 C-96 37.44 -96 26.88 -96 16 C-64.32 16 -32.64 16 0 16 C0 10.72 0 5.44 0 0 Z " fill="#FAF9C6" transform="translate(384,304)"/>
<path d="M0 0 C5.28 0 10.56 0 16 0 C16 10.56 16 21.12 16 32 C10.72 32 5.44 32 0 32 C0 37.28 0 42.56 0 48 C-31.68 48 -63.36 48 -96 48 C-96 37.44 -96 26.88 -96 16 C-64.32 16 -32.64 16 0 16 C0 10.72 0 5.44 0 0 Z " fill="#FAF9C6" transform="translate(384,256)"/>
<path d="M0 0 C5.28 0 10.56 0 16 0 C16 58.08 16 116.16 16 176 C10.72 176 5.44 176 0 176 C0 165.44 0 154.88 0 144 C-5.28 144 -10.56 144 -16 144 C-16 138.72 -16 133.44 -16 128 C-10.72 128 -5.44 128 0 128 C0 117.44 0 106.88 0 96 C-5.28 96 -10.56 96 -16 96 C-16 90.72 -16 85.44 -16 80 C-10.72 80 -5.44 80 0 80 C0 69.44 0 58.88 0 48 C-5.28 48 -10.56 48 -16 48 C-16 42.72 -16 37.44 -16 32 C-10.72 32 -5.44 32 0 32 C0 21.44 0 10.88 0 0 Z " fill="#B9745B" transform="translate(256,256)"/>
<path d="M0 0 C5.28 0 10.56 0 16 0 C16 10.56 16 21.12 16 32 C21.28 32 26.56 32 32 32 C32 37.28 32 42.56 32 48 C26.72 48 21.44 48 16 48 C16 58.56 16 69.12 16 80 C21.28 80 26.56 80 32 80 C32 85.28 32 90.56 32 96 C26.72 96 21.44 96 16 96 C16 106.56 16 117.12 16 128 C21.28 128 26.56 128 32 128 C32 133.28 32 138.56 32 144 C26.72 144 21.44 144 16 144 C16 154.56 16 165.12 16 176 C10.72 176 5.44 176 0 176 C0 117.92 0 59.84 0 0 Z " fill="#D5A57D" transform="translate(48,256)"/>
<path d="M0 0 C5.28 0 10.56 0 16 0 C16 10.56 16 21.12 16 32 C10.72 32 5.44 32 0 32 C0 37.28 0 42.56 0 48 C-21.12 48 -42.24 48 -64 48 C-64 37.44 -64 26.88 -64 16 C-42.88 16 -21.76 16 0 16 C0 10.72 0 5.44 0 0 Z " fill="#E5CB8E" transform="translate(208,416)"/>
<path d="M0 0 C5.28 0 10.56 0 16 0 C16 10.56 16 21.12 16 32 C10.72 32 5.44 32 0 32 C0 37.28 0 42.56 0 48 C-21.12 48 -42.24 48 -64 48 C-64 37.44 -64 26.88 -64 16 C-42.88 16 -21.76 16 0 16 C0 10.72 0 5.44 0 0 Z " fill="#E5CB8E" transform="translate(208,320)"/>
<path d="M0 0 C5.28 0 10.56 0 16 0 C16 10.56 16 21.12 16 32 C10.72 32 5.44 32 0 32 C0 37.28 0 42.56 0 48 C-5.28 48 -10.56 48 -16 48 C-16 58.56 -16 69.12 -16 80 C-31.84 80 -47.68 80 -64 80 C-64 74.72 -64 69.44 -64 64 C-58.72 64 -53.44 64 -48 64 C-48 58.72 -48 53.44 -48 48 C-42.72 48 -37.44 48 -32 48 C-32 42.72 -32 37.44 -32 32 C-26.72 32 -21.44 32 -16 32 C-16 26.72 -16 21.44 -16 16 C-10.72 16 -5.44 16 0 16 C0 10.72 0 5.44 0 0 Z " fill="#FAF9C6" transform="translate(224,240)"/>
<path d="M0 0 C5.28 0 10.56 0 16 0 C16 10.56 16 21.12 16 32 C10.72 32 5.44 32 0 32 C0 37.28 0 42.56 0 48 C-21.12 48 -42.24 48 -64 48 C-64 37.44 -64 26.88 -64 16 C-42.88 16 -21.76 16 0 16 C0 10.72 0 5.44 0 0 Z " fill="#E5CB8E" transform="translate(384,160)"/>
<path d="M0 0 C15.84 0 31.68 0 48 0 C48 15.84 48 31.68 48 48 C42.72 48 37.44 48 32 48 C32 53.28 32 58.56 32 64 C21.44 64 10.88 64 0 64 C0 58.72 0 53.44 0 48 C5.28 48 10.56 48 16 48 C16 37.44 16 26.88 16 16 C10.72 16 5.44 16 0 16 C0 10.72 0 5.44 0 0 Z " fill="#D5A57D" transform="translate(208,400)"/>
<path d="M0 0 C15.84 0 31.68 0 48 0 C48 15.84 48 31.68 48 48 C42.72 48 37.44 48 32 48 C32 53.28 32 58.56 32 64 C21.44 64 10.88 64 0 64 C0 58.72 0 53.44 0 48 C5.28 48 10.56 48 16 48 C16 37.44 16 26.88 16 16 C10.72 16 5.44 16 0 16 C0 10.72 0 5.44 0 0 Z " fill="#D5A57D" transform="translate(384,336)"/>
<path d="M0 0 C5.28 0 10.56 0 16 0 C16 10.56 16 21.12 16 32 C10.72 32 5.44 32 0 32 C0 37.28 0 42.56 0 48 C-5.28 48 -10.56 48 -16 48 C-16 53.28 -16 58.56 -16 64 C-21.28 64 -26.56 64 -32 64 C-32 69.28 -32 74.56 -32 80 C-42.56 80 -53.12 80 -64 80 C-64 74.72 -64 69.44 -64 64 C-58.72 64 -53.44 64 -48 64 C-48 58.72 -48 53.44 -48 48 C-42.72 48 -37.44 48 -32 48 C-32 42.72 -32 37.44 -32 32 C-26.72 32 -21.44 32 -16 32 C-16 26.72 -16 21.44 -16 16 C-10.72 16 -5.44 16 0 16 C0 10.72 0 5.44 0 0 Z " fill="#FAF9C6" transform="translate(400,80)"/>
<path d="M0 0 C5.28 0 10.56 0 16 0 C16 5.28 16 10.56 16 16 C26.56 16 37.12 16 48 16 C48 26.56 48 37.12 48 48 C32.16 48 16.32 48 0 48 C0 32.16 0 16.32 0 0 Z " fill="#FAF9C6" transform="translate(64,400)"/>
<path d="M0 0 C31.68 0 63.36 0 96 0 C96 5.28 96 10.56 96 16 C64.32 16 32.64 16 0 16 C0 10.72 0 5.44 0 0 Z " fill="#B9745B" transform="translate(112,464)"/>
<path d="M0 0 C31.68 0 63.36 0 96 0 C96 5.28 96 10.56 96 16 C64.32 16 32.64 16 0 16 C0 10.72 0 5.44 0 0 Z " fill="#B9745B" transform="translate(112,416)"/>
<path d="M0 0 C31.68 0 63.36 0 96 0 C96 5.28 96 10.56 96 16 C64.32 16 32.64 16 0 16 C0 10.72 0 5.44 0 0 Z " fill="#B9745B" transform="translate(288,400)"/>
<path d="M0 0 C31.68 0 63.36 0 96 0 C96 5.28 96 10.56 96 16 C64.32 16 32.64 16 0 16 C0 10.72 0 5.44 0 0 Z " fill="#B9745B" transform="translate(112,368)"/>
<path d="M0 0 C5.28 0 10.56 0 16 0 C16 10.56 16 21.12 16 32 C10.72 32 5.44 32 0 32 C0 37.28 0 42.56 0 48 C-10.56 48 -21.12 48 -32 48 C-32 37.44 -32 26.88 -32 16 C-21.44 16 -10.88 16 0 16 C0 10.72 0 5.44 0 0 Z " fill="#E5CB8E" transform="translate(384,352)"/>
<path d="M0 0 C31.68 0 63.36 0 96 0 C96 5.28 96 10.56 96 16 C64.32 16 32.64 16 0 16 C0 10.72 0 5.44 0 0 Z " fill="#B9745B" transform="translate(288,352)"/>
<path d="M0 0 C5.28 0 10.56 0 16 0 C16 5.28 16 10.56 16 16 C26.56 16 37.12 16 48 16 C48 26.56 48 37.12 48 48 C37.44 48 26.88 48 16 48 C16 42.72 16 37.44 16 32 C10.72 32 5.44 32 0 32 C0 21.44 0 10.88 0 0 Z " fill="#FAF9C6" transform="translate(64,352)"/>
<path d="M0 0 C31.68 0 63.36 0 96 0 C96 5.28 96 10.56 96 16 C64.32 16 32.64 16 0 16 C0 10.72 0 5.44 0 0 Z " fill="#B9745B" transform="translate(112,320)"/>
<path d="M0 0 C5.28 0 10.56 0 16 0 C16 10.56 16 21.12 16 32 C10.72 32 5.44 32 0 32 C0 37.28 0 42.56 0 48 C-10.56 48 -21.12 48 -32 48 C-32 37.44 -32 26.88 -32 16 C-21.44 16 -10.88 16 0 16 C0 10.72 0 5.44 0 0 Z " fill="#E5CB8E" transform="translate(384,304)"/>
<path d="M0 0 C31.68 0 63.36 0 96 0 C96 5.28 96 10.56 96 16 C64.32 16 32.64 16 0 16 C0 10.72 0 5.44 0 0 Z " fill="#B9745B" transform="translate(288,304)"/>
<path d="M0 0 C5.28 0 10.56 0 16 0 C16 5.28 16 10.56 16 16 C26.56 16 37.12 16 48 16 C48 26.56 48 37.12 48 48 C37.44 48 26.88 48 16 48 C16 42.72 16 37.44 16 32 C10.72 32 5.44 32 0 32 C0 21.44 0 10.88 0 0 Z " fill="#FAF9C6" transform="translate(64,304)"/>
<path d="M0 0 C5.28 0 10.56 0 16 0 C16 10.56 16 21.12 16 32 C10.72 32 5.44 32 0 32 C0 37.28 0 42.56 0 48 C-10.56 48 -21.12 48 -32 48 C-32 37.44 -32 26.88 -32 16 C-21.44 16 -10.88 16 0 16 C0 10.72 0 5.44 0 0 Z " fill="#E5CB8E" transform="translate(384,256)"/>
<path d="M0 0 C31.68 0 63.36 0 96 0 C96 5.28 96 10.56 96 16 C64.32 16 32.64 16 0 16 C0 10.72 0 5.44 0 0 Z " fill="#B9745B" transform="translate(288,256)"/>
<path d="M0 0 C5.28 0 10.56 0 16 0 C16 10.56 16 21.12 16 32 C10.72 32 5.44 32 0 32 C0 37.28 0 42.56 0 48 C-10.56 48 -21.12 48 -32 48 C-32 37.44 -32 26.88 -32 16 C-21.44 16 -10.88 16 0 16 C0 10.72 0 5.44 0 0 Z " fill="#E5CB8E" transform="translate(384,208)"/>
<path d="M0 0 C31.68 0 63.36 0 96 0 C96 5.28 96 10.56 96 16 C64.32 16 32.64 16 0 16 C0 10.72 0 5.44 0 0 Z " fill="#B9745B" transform="translate(288,208)"/>
<path d="M0 0 C31.68 0 63.36 0 96 0 C96 5.28 96 10.56 96 16 C64.32 16 32.64 16 0 16 C0 10.72 0 5.44 0 0 Z " fill="#D5A57D" transform="translate(112,208)"/>
<path d="M0 0 C10.56 0 21.12 0 32 0 C32 10.56 32 21.12 32 32 C10.88 32 -10.24 32 -32 32 C-32 26.72 -32 21.44 -32 16 C-21.44 16 -10.88 16 0 16 C0 10.72 0 5.44 0 0 Z " fill="#E5CB8E" transform="translate(288,176)"/>
<path d="M0 0 C5.28 0 10.56 0 16 0 C16 5.28 16 10.56 16 16 C26.56 16 37.12 16 48 16 C48 26.56 48 37.12 48 48 C37.44 48 26.88 48 16 48 C16 42.72 16 37.44 16 32 C10.72 32 5.44 32 0 32 C0 21.44 0 10.88 0 0 Z " fill="#FAF9C6" transform="translate(240,144)"/>
<path d="M0 0 C5.28 0 10.56 0 16 0 C16 15.84 16 31.68 16 48 C10.72 48 5.44 48 0 48 C0 53.28 0 58.56 0 64 C-10.56 64 -21.12 64 -32 64 C-32 58.72 -32 53.44 -32 48 C-26.72 48 -21.44 48 -16 48 C-16 42.72 -16 37.44 -16 32 C-10.72 32 -5.44 32 0 32 C0 21.44 0 10.88 0 0 Z " fill="#E5CB8E" transform="translate(416,80)"/>
<path d="M0 0 C31.68 0 63.36 0 96 0 C96 5.28 96 10.56 96 16 C64.32 16 32.64 16 0 16 C0 10.72 0 5.44 0 0 Z " fill="#D5A57D" transform="translate(288,48)"/>
<path d="M0 0 C5.28 0 10.56 0 16 0 C16 10.56 16 21.12 16 32 C10.72 32 5.44 32 0 32 C0 37.28 0 42.56 0 48 C-10.56 48 -21.12 48 -32 48 C-32 42.72 -32 37.44 -32 32 C-26.72 32 -21.44 32 -16 32 C-16 26.72 -16 21.44 -16 16 C-10.72 16 -5.44 16 0 16 C0 10.72 0 5.44 0 0 Z " fill="#E5CB8E" transform="translate(240,256)"/>
<path d="M0 0 C10.56 0 21.12 0 32 0 C32 10.56 32 21.12 32 32 C21.44 32 10.88 32 0 32 C0 21.44 0 10.88 0 0 Z " fill="#FAF9C6" transform="translate(144,432)"/>
<path d="M0 0 C10.56 0 21.12 0 32 0 C32 10.56 32 21.12 32 32 C21.44 32 10.88 32 0 32 C0 21.44 0 10.88 0 0 Z " fill="#FAF9C6" transform="translate(144,384)"/>
<path d="M0 0 C10.56 0 21.12 0 32 0 C32 10.56 32 21.12 32 32 C21.44 32 10.88 32 0 32 C0 21.44 0 10.88 0 0 Z " fill="#E5CB8E" transform="translate(288,368)"/>
<path d="M0 0 C5.28 0 10.56 0 16 0 C16 10.56 16 21.12 16 32 C10.72 32 5.44 32 0 32 C0 37.28 0 42.56 0 48 C-5.28 48 -10.56 48 -16 48 C-16 37.44 -16 26.88 -16 16 C-10.72 16 -5.44 16 0 16 C0 10.72 0 5.44 0 0 Z " fill="#D5A57D" transform="translate(240,352)"/>
<path d="M0 0 C10.56 0 21.12 0 32 0 C32 10.56 32 21.12 32 32 C21.44 32 10.88 32 0 32 C0 21.44 0 10.88 0 0 Z " fill="#FAF9C6" transform="translate(144,336)"/>
<path d="M0 0 C10.56 0 21.12 0 32 0 C32 10.56 32 21.12 32 32 C21.44 32 10.88 32 0 32 C0 21.44 0 10.88 0 0 Z " fill="#E5CB8E" transform="translate(288,320)"/>
<path d="M0 0 C5.28 0 10.56 0 16 0 C16 10.56 16 21.12 16 32 C10.72 32 5.44 32 0 32 C0 37.28 0 42.56 0 48 C-5.28 48 -10.56 48 -16 48 C-16 37.44 -16 26.88 -16 16 C-10.72 16 -5.44 16 0 16 C0 10.72 0 5.44 0 0 Z " fill="#D5A57D" transform="translate(416,288)"/>
<path d="M0 0 C10.56 0 21.12 0 32 0 C32 10.56 32 21.12 32 32 C21.44 32 10.88 32 0 32 C0 21.44 0 10.88 0 0 Z " fill="#E5CB8E" transform="translate(288,272)"/>
<path d="M0 0 C10.56 0 21.12 0 32 0 C32 10.56 32 21.12 32 32 C21.44 32 10.88 32 0 32 C0 21.44 0 10.88 0 0 Z " fill="#FAF9C6" transform="translate(320,224)"/>
<path d="M0 0 C10.56 0 21.12 0 32 0 C32 10.56 32 21.12 32 32 C21.44 32 10.88 32 0 32 C0 21.44 0 10.88 0 0 Z " fill="#E5CB8E" transform="translate(288,224)"/>
<path d="M0 0 C15.84 0 31.68 0 48 0 C48 10.56 48 21.12 48 32 C42.72 32 37.44 32 32 32 C32 26.72 32 21.44 32 16 C21.44 16 10.88 16 0 16 C0 10.72 0 5.44 0 0 Z " fill="#D5A57D" transform="translate(208,224)"/>
<path d="M0 0 C10.56 0 21.12 0 32 0 C32 10.56 32 21.12 32 32 C21.44 32 10.88 32 0 32 C0 21.44 0 10.88 0 0 Z " fill="#FAF9C6" transform="translate(320,176)"/>
<path d="M0 0 C10.56 0 21.12 0 32 0 C32 5.28 32 10.56 32 16 C21.44 16 10.88 16 0 16 C0 10.72 0 5.44 0 0 Z " fill="#B9745B" transform="translate(208,448)"/>
<path d="M0 0 C10.56 0 21.12 0 32 0 C32 5.28 32 10.56 32 16 C21.44 16 10.88 16 0 16 C0 10.72 0 5.44 0 0 Z " fill="#B9745B" transform="translate(80,448)"/>
<path d="M0 0 C10.56 0 21.12 0 32 0 C32 5.28 32 10.56 32 16 C21.44 16 10.88 16 0 16 C0 10.72 0 5.44 0 0 Z " fill="#B9745B" transform="translate(208,400)"/>
<path d="M0 0 C10.56 0 21.12 0 32 0 C32 5.28 32 10.56 32 16 C21.44 16 10.88 16 0 16 C0 10.72 0 5.44 0 0 Z " fill="#B9745B" transform="translate(80,400)"/>
<path d="M0 0 C10.56 0 21.12 0 32 0 C32 5.28 32 10.56 32 16 C21.44 16 10.88 16 0 16 C0 10.72 0 5.44 0 0 Z " fill="#B9745B" transform="translate(384,384)"/>
<path d="M0 0 C10.56 0 21.12 0 32 0 C32 5.28 32 10.56 32 16 C21.44 16 10.88 16 0 16 C0 10.72 0 5.44 0 0 Z " fill="#B9745B" transform="translate(208,352)"/>
<path d="M0 0 C10.56 0 21.12 0 32 0 C32 5.28 32 10.56 32 16 C21.44 16 10.88 16 0 16 C0 10.72 0 5.44 0 0 Z " fill="#B9745B" transform="translate(80,352)"/>
<path d="M0 0 C10.56 0 21.12 0 32 0 C32 5.28 32 10.56 32 16 C21.44 16 10.88 16 0 16 C0 10.72 0 5.44 0 0 Z " fill="#B9745B" transform="translate(384,336)"/>
<path d="M0 0 C10.56 0 21.12 0 32 0 C32 5.28 32 10.56 32 16 C21.44 16 10.88 16 0 16 C0 10.72 0 5.44 0 0 Z " fill="#B9745B" transform="translate(208,304)"/>
<path d="M0 0 C10.56 0 21.12 0 32 0 C32 5.28 32 10.56 32 16 C21.44 16 10.88 16 0 16 C0 10.72 0 5.44 0 0 Z " fill="#D5A57D" transform="translate(80,304)"/>
<path d="M0 0 C10.56 0 21.12 0 32 0 C32 5.28 32 10.56 32 16 C21.44 16 10.88 16 0 16 C0 10.72 0 5.44 0 0 Z " fill="#B9745B" transform="translate(384,288)"/>
<path d="M0 0 C10.56 0 21.12 0 32 0 C32 5.28 32 10.56 32 16 C21.44 16 10.88 16 0 16 C0 10.72 0 5.44 0 0 Z " fill="#B9745B" transform="translate(384,240)"/>
<path d="M0 0 C10.56 0 21.12 0 32 0 C32 5.28 32 10.56 32 16 C21.44 16 10.88 16 0 16 C0 10.72 0 5.44 0 0 Z " fill="#B9745B" transform="translate(256,240)"/>
<path d="M0 0 C10.56 0 21.12 0 32 0 C32 5.28 32 10.56 32 16 C21.44 16 10.88 16 0 16 C0 10.72 0 5.44 0 0 Z " fill="#D5A57D" transform="translate(80,224)"/>
<path d="M0 0 C5.28 0 10.56 0 16 0 C16 10.56 16 21.12 16 32 C10.72 32 5.44 32 0 32 C0 21.44 0 10.88 0 0 Z " fill="#E5CB8E" transform="translate(240,192)"/>
<path d="M0 0 C10.56 0 21.12 0 32 0 C32 5.28 32 10.56 32 16 C21.44 16 10.88 16 0 16 C0 10.72 0 5.44 0 0 Z " fill="#B9745B" transform="translate(384,192)"/>
<path d="M0 0 C10.56 0 21.12 0 32 0 C32 5.28 32 10.56 32 16 C21.44 16 10.88 16 0 16 C0 10.72 0 5.44 0 0 Z " fill="#D5A57D" transform="translate(256,192)"/>
<path d="M0 0 C10.56 0 21.12 0 32 0 C32 5.28 32 10.56 32 16 C21.44 16 10.88 16 0 16 C0 10.72 0 5.44 0 0 Z " fill="#B9745B" transform="translate(384,144)"/>
<path d="M0 0 C10.56 0 21.12 0 32 0 C32 5.28 32 10.56 32 16 C21.44 16 10.88 16 0 16 C0 10.72 0 5.44 0 0 Z " fill="#D5A57D" transform="translate(256,144)"/>
<path d="M0 0 C10.56 0 21.12 0 32 0 C32 5.28 32 10.56 32 16 C21.44 16 10.88 16 0 16 C0 10.72 0 5.44 0 0 Z " fill="#D5A57D" transform="translate(384,64)"/>
<path d="M0 0 C10.56 0 21.12 0 32 0 C32 5.28 32 10.56 32 16 C21.44 16 10.88 16 0 16 C0 10.72 0 5.44 0 0 Z " fill="#D5A57D" transform="translate(256,64)"/>
<path d="M0 0 C5.28 0 10.56 0 16 0 C16 5.28 16 10.56 16 16 C10.72 16 5.44 16 0 16 C0 10.72 0 5.44 0 0 Z " fill="#B9745B" transform="translate(240,432)"/>
<path d="M0 0 C5.28 0 10.56 0 16 0 C16 5.28 16 10.56 16 16 C10.72 16 5.44 16 0 16 C0 10.72 0 5.44 0 0 Z " fill="#B9745B" transform="translate(64,432)"/>
<path d="M0 0 C5.28 0 10.56 0 16 0 C16 5.28 16 10.56 16 16 C10.72 16 5.44 16 0 16 C0 10.72 0 5.44 0 0 Z " fill="#9B5044" transform="translate(288,400)"/>
<path d="M0 0 C5.28 0 10.56 0 16 0 C16 5.28 16 10.56 16 16 C10.72 16 5.44 16 0 16 C0 10.72 0 5.44 0 0 Z " fill="#B9745B" transform="translate(416,368)"/>
<path d="M0 0 C5.28 0 10.56 0 16 0 C16 5.28 16 10.56 16 16 C10.72 16 5.44 16 0 16 C0 10.72 0 5.44 0 0 Z " fill="#E5CB8E" transform="translate(192,304)"/>
<path d="M0 0 C5.28 0 10.56 0 16 0 C16 5.28 16 10.56 16 16 C10.72 16 5.44 16 0 16 C0 10.72 0 5.44 0 0 Z " fill="#9B5044" transform="translate(256,240)"/>
<path d="M0 0 C5.28 0 10.56 0 16 0 C16 5.28 16 10.56 16 16 C10.72 16 5.44 16 0 16 C0 10.72 0 5.44 0 0 Z " fill="#D5A57D" transform="translate(240,240)"/>
<path d="M0 0 C5.28 0 10.56 0 16 0 C16 5.28 16 10.56 16 16 C10.72 16 5.44 16 0 16 C0 10.72 0 5.44 0 0 Z " fill="#D5A57D" transform="translate(64,240)"/>
<path d="M0 0 C5.28 0 10.56 0 16 0 C16 5.28 16 10.56 16 16 C10.72 16 5.44 16 0 16 C0 10.72 0 5.44 0 0 Z " fill="#E5CB8E" transform="translate(256,224)"/>
<path d="M0 0 C5.28 0 10.56 0 16 0 C16 5.28 16 10.56 16 16 C10.72 16 5.44 16 0 16 C0 10.72 0 5.44 0 0 Z " fill="#9B5044" transform="translate(240,224)"/>
<path d="M0 0 C5.28 0 10.56 0 16 0 C16 5.28 16 10.56 16 16 C10.72 16 5.44 16 0 16 C0 10.72 0 5.44 0 0 Z " fill="#9B5044" transform="translate(224,208)"/>
<path d="M0 0 C5.28 0 10.56 0 16 0 C16 5.28 16 10.56 16 16 C10.72 16 5.44 16 0 16 C0 10.72 0 5.44 0 0 Z " fill="#FAF9C6" transform="translate(240,192)"/>
<path d="M0 0 C5.28 0 10.56 0 16 0 C16 5.28 16 10.56 16 16 C10.72 16 5.44 16 0 16 C0 10.72 0 5.44 0 0 Z " fill="#E5CB8E" transform="translate(368,144)"/>
<path d="M0 0 C5.28 0 10.56 0 16 0 C16 5.28 16 10.56 16 16 C10.72 16 5.44 16 0 16 C0 10.72 0 5.44 0 0 Z " fill="#D5A57D" transform="translate(416,80)"/>
<path d="M0 0 C5.28 0 10.56 0 16 0 C16 5.28 16 10.56 16 16 C10.72 16 5.44 16 0 16 C0 10.72 0 5.44 0 0 Z " fill="#D5A57D" transform="translate(240,80)"/>
</svg>
